<svg xmlns="http://www.w3.org/2000/svg" width="60.902" height="89.989" viewBox="0 0 60.902 89.989"><path d="M151.4,500h10.026a3.957,3.957,0,0,1-3.957,3.957h-2.111A3.957,3.957,0,0,1,151.4,500Z" transform="translate(-125.354 -413.968)" fill="#3f3d56"/><path d="M353.179,247.611v-3.678c0-4.444,4.833-8.647,7.968-11.646a22.288,22.288,0,1,0-37.389-16.672q0,.061,0,.123a22.714,22.714,0,0,0,6.742,16.549c3.118,2.944,7.968,7.156,7.968,11.646v3.678" transform="translate(-314.759 -170.44)" fill="#f9d077"/><path d="M350.7,245.938a.516.516,0,0,1-.516-.516v-3.678c0-4.323,4.264-8.359,7.377-11.306.258-.245.51-.482.751-.713a21.762,21.762,0,0,0,6.583-16.176A21.32,21.32,0,0,0,343.34,192h-.061a21.513,21.513,0,0,0-21.489,21.428v.12a22.179,22.179,0,0,0,6.58,16.175c.212.2.432.406.658.617,3.153,2.952,7.472,7,7.472,11.4v3.678a.516.516,0,1,1-1.032,0v-3.678c0-3.96-4.13-7.827-7.145-10.65q-.341-.319-.661-.62a23.214,23.214,0,0,1-6.9-16.925v-.124a22.548,22.548,0,0,1,22.52-22.458h.064a22.464,22.464,0,0,1,22.581,22.582,22.771,22.771,0,0,1-6.9,16.923c-.242.232-.495.471-.755.717-2.977,2.818-7.054,6.677-7.054,10.556v3.678a.516.516,0,0,1-.516.516Z" transform="translate(-312.276 -168.251)" fill="#3f3d56"/><path d="M429.169,540.666h-9.807a.86.86,0,0,1,0-1.721h9.807a.86.86,0,0,1,0,1.721Z" transform="translate(-393.202 -456.355)" fill="#3f3d56"/><path d="M279.71,165.039a.857.857,0,0,1-.565-.212l-7.388-6.449a.86.86,0,0,1,1.132-1.3l7.388,6.449a.86.86,0,0,1-.566,1.508Z" transform="translate(-271.462 -140.02)" fill="#e6e6e6"/><path d="M573.337,165.039a.86.86,0,0,1-.566-1.508l7.388-6.449a.86.86,0,1,1,1.132,1.3l-7.388,6.449A.857.857,0,0,1,573.337,165.039Z" transform="translate(-520.683 -140.02)" fill="#e6e6e6"/><path d="M419.824,522.919H405.113a.86.86,0,1,1,0-1.721h14.711a.86.86,0,1,1,0,1.721Z" transform="translate(-381.405 -441.661)" fill="#3f3d56"/><path d="M447.861,409.792a.86.86,0,0,1-.86-.86V389.317a.86.86,0,1,1,1.721,0v19.614A.86.86,0,0,1,447.861,409.792Z" transform="translate(-416.797 -331.76)" fill="#fff"/><path d="M419.842,378.379c-2.78,0-6.193-2.515-6.336-2.622a.86.86,0,1,1,1.027-1.381c.855.634,3.477,2.282,5.309,2.282s4.454-1.647,5.31-2.282a.86.86,0,1,1,1.027,1.381C426.035,375.864,422.622,378.379,419.842,378.379Z" transform="translate(-388.778 -319.962)" fill="#fff"/><path d="M447.86,75.376a.86.86,0,0,1-.86-.86V59.805a.86.86,0,0,1,1.721,0V74.516a.86.86,0,0,1-.86.86Z" transform="translate(-416.796 -58.945)" fill="#e6e6e6"/></svg>