<svg width="565" height="240" viewBox="0 0 565 240" fill="none" xmlns="http://www.w3.org/2000/svg">
<path d="M368 168H12C5.37258 168 0 173.373 0 180C0 186.627 5.37258 192 12 192H368C374.627 192 380 186.627 380 180C380 173.373 374.627 168 368 168Z" fill="url(#paint0_linear_2430_491)"/>
<path d="M407 0H241C234.373 0 229 5.37258 229 12C229 18.6274 234.373 24 241 24H407C413.627 24 419 18.6274 419 12C419 5.37258 413.627 0 407 0Z" fill="url(#paint1_linear_2430_491)"/>
<path d="M553 53H371C364.373 53 359 58.3726 359 65C359 71.6274 364.373 77 371 77H553C559.627 77 565 71.6274 565 65C565 58.3726 559.627 53 553 53Z" fill="url(#paint2_linear_2430_491)"/>
<path d="M453 11C453 4.92487 448.075 0 442 0C435.925 0 431 4.92487 431 11V13C431 19.0751 435.925 24 442 24C448.075 24 453 19.0751 453 13V11Z" fill="#ADADAD"/>
<path d="M291 216H109C102.373 216 97 221.373 97 228C97 234.627 102.373 240 109 240H291C297.627 240 303 234.627 303 228C303 221.373 297.627 216 291 216Z" fill="url(#paint3_linear_2430_491)"/>
<defs>
<linearGradient id="paint0_linear_2430_491" x1="0" y1="180" x2="373.92" y2="180" gradientUnits="userSpaceOnUse">
<stop stop-color="#5E8CCC"/>
<stop offset="1" stop-color="#41ECC5"/>
</linearGradient>
<linearGradient id="paint1_linear_2430_491" x1="229" y1="12" x2="419" y2="12" gradientUnits="userSpaceOnUse">
<stop stop-color="#E498F1"/>
<stop offset="1" stop-color="#7D98FB"/>
</linearGradient>
<linearGradient id="paint2_linear_2430_491" x1="362.09" y1="65" x2="565" y2="65" gradientUnits="userSpaceOnUse">
<stop stop-color="#F9D377"/>
<stop offset="1" stop-color="#F86E68"/>
</linearGradient>
<linearGradient id="paint3_linear_2430_491" x1="100.09" y1="228" x2="303" y2="228" gradientUnits="userSpaceOnUse">
<stop stop-color="#F9D377"/>
<stop offset="1" stop-color="#F86E68"/>
</linearGradient>
</defs>
</svg>
