<svg width="496" height="277" viewBox="0 0 496 277" fill="none" xmlns="http://www.w3.org/2000/svg">
<path d="M484 191H128C121.373 191 116 196.373 116 203C116 209.627 121.373 215 128 215H484C490.627 215 496 209.627 496 203C496 196.373 490.627 191 484 191Z" fill="url(#paint0_linear_2430_350)"/>
<path d="M178 253H12C5.37258 253 0 258.373 0 265C0 271.627 5.37258 277 12 277H178C184.627 277 190 271.627 190 265C190 258.373 184.627 253 178 253Z" fill="url(#paint1_linear_2430_350)"/>
<path d="M281 0H99C92.3726 0 87 5.37258 87 12C87 18.6274 92.3726 24 99 24H281C287.627 24 293 18.6274 293 12C293 5.37258 287.627 0 281 0Z" fill="url(#paint2_linear_2430_350)"/>
<path d="M98 202C98 195.925 93.0751 191 87 191C80.9249 191 76 195.925 76 202V204C76 210.075 80.9249 215 87 215C93.0751 215 98 210.075 98 204V202Z" fill="#ADADAD"/>
<defs>
<linearGradient id="paint0_linear_2430_350" x1="116" y1="203" x2="489.92" y2="203" gradientUnits="userSpaceOnUse">
<stop stop-color="#5E8CCC"/>
<stop offset="1" stop-color="#41ECC5"/>
</linearGradient>
<linearGradient id="paint1_linear_2430_350" x1="0" y1="265" x2="190" y2="265" gradientUnits="userSpaceOnUse">
<stop stop-color="#E498F1"/>
<stop offset="1" stop-color="#7D98FB"/>
</linearGradient>
<linearGradient id="paint2_linear_2430_350" x1="90.09" y1="12" x2="293" y2="12" gradientUnits="userSpaceOnUse">
<stop stop-color="#F9D377"/>
<stop offset="1" stop-color="#F86E68"/>
</linearGradient>
</defs>
</svg>
