<svg width="530" height="210" viewBox="0 0 530 210" fill="none" xmlns="http://www.w3.org/2000/svg">
<path d="M518 140H340C333.373 140 328 145.373 328 152C328 158.627 333.373 164 340 164H518C524.627 164 530 158.627 530 152C530 145.373 524.627 140 518 140Z" fill="#ADADAD"/>
<path d="M178 0H12C5.37258 0 0 5.37258 0 12C0 18.6274 5.37258 24 12 24H178C184.627 24 190 18.6274 190 12C190 5.37258 184.627 0 178 0Z" fill="url(#paint0_linear_2430_709)"/>
<path d="M350 186H168C161.373 186 156 191.373 156 198C156 204.627 161.373 210 168 210H350C356.627 210 362 204.627 362 198C362 191.373 356.627 186 350 186Z" fill="url(#paint1_linear_2430_709)"/>
<defs>
<linearGradient id="paint0_linear_2430_709" x1="0" y1="12" x2="190" y2="12" gradientUnits="userSpaceOnUse">
<stop stop-color="#E498F1"/>
<stop offset="1" stop-color="#7D98FB"/>
</linearGradient>
<linearGradient id="paint1_linear_2430_709" x1="159.09" y1="198" x2="362" y2="198" gradientUnits="userSpaceOnUse">
<stop stop-color="#F9D377"/>
<stop offset="1" stop-color="#F86E68"/>
</linearGradient>
</defs>
</svg>
