<svg width="401" height="322" viewBox="0 0 401 322" fill="none" xmlns="http://www.w3.org/2000/svg">
<path d="M75.5 265.906L82.786 269.88L78.15 285.113L70.865 285.775L66.891 277.165L75.5 265.906Z" fill="#FFB9B9"/>
<path d="M52.981 296.374V303.659L41.722 302.997L41.8791 296.997L52.981 296.374Z" fill="#FFB9B9"/>
<path d="M78.1491 178.483L74.1751 228.157L61.591 301.011L41.722 298.362L48.345 240.741L45.6961 187.756L78.1491 178.483Z" fill="#2F2E41"/>
<path d="M25.164 141.392L72.851 142.054L78.151 178.481L45.698 193.714L37.75 222.856L78.15 265.906L62.25 285.775C62.25 285.775 39.731 255.309 23.173 238.088C6.61502 220.867 14.563 168.545 14.563 168.545L25.164 141.392Z" fill="#2F2E41"/>
<path d="M53.644 47.3432C61.6913 47.3432 68.215 40.8195 68.215 32.7722C68.215 24.7248 61.6913 18.2012 53.644 18.2012C45.5967 18.2012 39.073 24.7248 39.073 32.7722C39.073 40.8195 45.5967 47.3432 53.644 47.3432Z" fill="#FFB9B9"/>
<path d="M58.9419 42.7069V57.2779L49.0069 73.1779C49.0069 73.1779 33.7739 61.9189 37.0849 59.2689C40.3959 56.6189 41.0589 36.0879 41.0589 36.0879L58.9419 42.7069Z" fill="#FFB9B9"/>
<path d="M58.942 54.6287L68.877 66.5497L64.903 149.339L33.775 148.677L28.475 76.4847L35.098 57.9397L39.642 51.7627L47.683 63.9047L58.942 54.6287Z" fill="white"/>
<path d="M74.838 97.679L82.123 125.496L74.838 153.313L86.76 169.213L97.36 118.877C97.36 118.877 89.412 77.8139 88.75 73.1769C88.088 68.5399 86.763 67.877 86.763 67.877L81.463 68.5389L74.838 97.679Z" fill="#2F2E41"/>
<path d="M21.853 108.276L17.217 116.887L15.892 131.458L18.541 148.016L9.269 163.249L0 121.522L9.934 67.874H13.908L21.853 108.276Z" fill="#2F2E41"/>
<path d="M78.1499 265.245C78.1499 265.245 87.4219 267.894 90.7339 268.557C94.0459 269.22 88.7469 281.803 88.7469 281.803C88.7469 281.803 85.4349 299.023 84.7729 302.335C84.1109 305.647 79.4729 316.906 73.5139 318.235C67.5549 319.564 71.5269 295.054 71.5269 295.054C71.5269 295.054 68.8779 287.106 68.8779 284.454C68.8779 281.802 72.8519 283.129 72.8519 283.129C83.4489 281.805 78.1499 265.245 78.1499 265.245Z" fill="#2F2E41"/>
<path d="M56.294 316.242C55.632 320.216 56.956 320.216 46.359 321.542C35.762 322.868 38.411 314.256 38.411 314.256C38.8539 310.197 39.7423 306.199 41.06 302.334C43.047 297.034 53.644 303.659 53.644 303.659C53.644 303.659 56.956 312.268 56.294 316.242Z" fill="#2F2E41"/>
<path d="M41.0431 36.5457L40.6981 42.4357C38.0663 36.1912 36.4018 29.5819 35.7621 22.8357C35.1001 12.9007 46.3621 10.9137 52.9821 10.2517C59.6021 9.5897 70.8641 14.2257 70.8641 19.5237C70.8641 24.8217 58.9421 23.4977 54.3061 22.1727C49.6701 20.8477 47.6831 32.1077 47.6831 32.1077L45.0341 32.7697L41.0431 36.5457Z" fill="#2F2E41"/>
<path d="M62.852 59.3189L58.943 54.6289L47.684 63.9009L58.943 71.8489L62.852 59.3189Z" fill="white"/>
<path d="M35.099 57.9405L39.735 51.9795L47.683 63.9005L37.748 71.1865L35.099 57.9405Z" fill="white"/>
<path d="M76.825 106.949L74.176 132.117L79.476 147.35L82.788 161.921C82.788 161.921 82.788 175.83 69.542 176.492C56.296 177.154 45.036 134.766 45.036 134.766C45.036 134.766 43.0491 144.038 41.7241 149.337C40.3991 154.636 17.8811 175.833 17.8811 175.833C17.8811 175.833 12.5811 175.171 7.94605 164.574C3.31105 153.977 17.218 144.042 17.218 144.042L21.192 130.133L19.867 112.913L10.5951 67.8748L38.081 53.6348L35.1011 91.7178L45.036 121.518L59.936 55.6178L64.9031 59.2608L86.097 67.8708L76.825 106.949Z" fill="#2F2E41"/>
<path d="M389.217 228.622L221.537 261.067L177.937 32.441L345.616 0L389.217 228.622Z" fill="#E0E0E0"/>
<path d="M371.314 14.1309V253.38H195.84L371.314 14.1309Z" fill="url(#paint0_linear_2445_2)"/>
<path d="M368.953 17.3525H198.205V250.154H368.953V17.3525Z" fill="white"/>
<path d="M255.743 57.5208C255.843 62.6392 257.343 67.6324 260.082 71.9577C262.82 76.2831 266.692 79.7752 271.276 82.0546C275.86 84.334 280.981 85.3134 286.082 84.8865C291.184 84.4596 296.071 82.6427 300.212 79.6332C304.354 76.6237 307.591 72.5367 309.573 67.8163C311.554 63.096 312.204 57.9229 311.452 52.8591C310.699 47.7953 308.574 43.0345 305.305 39.0941C302.037 35.1537 297.751 32.1844 292.914 30.5088L293 37.7748C293.038 40.301 292.074 42.7394 290.318 44.5559C288.562 46.3723 286.157 47.4187 283.631 47.4658C281.109 47.4807 278.683 46.4965 276.884 44.7281C275.085 42.9598 274.059 40.5512 274.031 38.0288L273.945 30.7628C268.533 32.8176 263.884 36.4871 260.628 41.2737C257.373 46.0603 255.668 51.7324 255.745 57.5208H255.743Z" fill="url(#paint1_linear_2445_2)"/>
<path d="M311.768 56.2306C311.732 51.1107 310.294 46.0987 307.609 41.7391C304.924 37.3796 301.095 33.8394 296.539 31.5034C291.983 29.1673 286.874 28.1247 281.767 28.4889C276.66 28.8532 271.751 30.6103 267.572 33.5693C263.394 36.5283 260.107 40.576 258.068 45.2724C256.029 49.9688 255.316 55.1343 256.007 60.2074C256.698 65.2805 258.766 70.0672 261.987 74.0471C265.208 78.027 269.458 81.048 274.276 82.7816V75.5156C274.274 72.9934 275.271 70.573 277.048 68.7832C278.825 66.9934 281.238 65.9797 283.76 65.9636C286.282 65.9794 288.696 66.993 290.473 68.7829C292.25 70.5727 293.246 72.9933 293.244 75.5156V82.7846C298.684 80.7947 303.38 77.179 306.694 72.4282C310.008 67.6775 311.78 62.022 311.769 56.2296L311.768 56.2306Z" fill="#2F2E41"/>
<path d="M283.777 61.5181C289.723 61.5181 294.543 56.6627 294.543 50.6731C294.543 44.6836 289.723 39.8281 283.777 39.8281C277.831 39.8281 273.011 44.6836 273.011 50.6731C273.011 56.6627 277.831 61.5181 283.777 61.5181Z" fill="white" stroke="white" stroke-miterlimit="10"/>
<path d="M283.76 64.2861C281.238 64.302 278.824 65.3156 277.047 67.1055C275.27 68.8953 274.274 71.3159 274.276 73.8381V81.1071C280.405 83.3204 287.115 83.3204 293.244 81.1071V73.8381C293.246 71.316 292.249 68.8956 290.472 67.1058C288.695 65.316 286.282 64.3023 283.76 64.2861Z" fill="white" stroke="white" stroke-miterlimit="10"/>
<path d="M272.918 50.0728C272.053 48.3867 271.657 46.4993 271.771 44.6078C271.894 42.7115 272.749 40.9373 274.157 39.6608C275.817 38.4123 277.827 37.7175 279.904 37.6748C281.964 37.6391 284.02 37.4828 286.062 37.2068C287.736 36.8637 289.325 36.1904 290.735 35.2263C292.146 34.2622 293.35 33.0266 294.278 31.5918C294.479 33.1772 294.464 34.7826 294.232 36.3638C294.113 37.1515 293.833 37.9064 293.411 38.5821C292.989 39.2578 292.433 39.8399 291.778 40.2928C293.414 39.5318 293.235 41.3178 292.878 42.3858C293.689 43.3718 295.657 43.5358 295.757 44.8108C295.92 46.0819 295.78 47.3737 295.346 48.5798C294.853 49.7548 295.382 51.8308 294.117 51.9198" fill="white"/>
<path d="M272.918 50.0728C272.053 48.3867 271.657 46.4993 271.771 44.6078C271.894 42.7115 272.749 40.9373 274.157 39.6608C275.817 38.4123 277.827 37.7175 279.904 37.6748C281.964 37.6391 284.02 37.4828 286.062 37.2068C287.736 36.8637 289.325 36.1904 290.735 35.2263C292.146 34.2622 293.35 33.0266 294.278 31.5918C294.479 33.1772 294.464 34.7826 294.232 36.3638C294.113 37.1515 293.833 37.9064 293.411 38.5821C292.989 39.2578 292.433 39.8399 291.778 40.2928C293.414 39.5318 293.235 41.3178 292.878 42.3858C293.689 43.3718 295.657 43.5358 295.757 44.8108C295.92 46.0819 295.78 47.3737 295.346 48.5798C294.853 49.7548 295.382 51.8308 294.117 51.9198" stroke="white" stroke-miterlimit="10"/>
<path d="M292.379 40.0566C292.379 40.0566 299.879 40.7176 294.544 51.9476Z" fill="white"/>
<path d="M237.394 201.421H214.201V224.782H237.394V201.421Z" fill="url(#paint2_linear_2445_2)"/>
<path d="M235.391 203.435H216.198V222.767H235.391V203.435Z" fill="#8898FA"/>
<path d="M311.768 104.754H255.787V108.783H311.768V104.754Z" fill="#F97C6A"/>
<path d="M350.157 110.394H255.787V114.423H350.157V110.394Z" fill="#E0E0E0"/>
<path d="M350.157 116.031H255.787V120.06H350.157V116.031Z" fill="#E0E0E0"/>
<path d="M311.768 155.102H255.787V159.131H311.768V155.102Z" fill="#5C94CC"/>
<path d="M350.157 160.738H255.787V164.767H350.157V160.738Z" fill="#E0E0E0"/>
<path d="M350.157 166.379H255.787V170.408H350.157V166.379Z" fill="#E0E0E0"/>
<path d="M311.768 205.446H255.787V209.475H311.768V205.446Z" fill="#8898FA"/>
<path d="M350.157 211.087H255.787V215.116H350.157V211.087Z" fill="#E0E0E0"/>
<path d="M350.157 216.727H255.787V220.756H350.157V216.727Z" fill="#E0E0E0"/>
<defs>
<linearGradient id="paint0_linear_2445_2" x1="283.577" y1="253.38" x2="283.577" y2="14.1309" gradientUnits="userSpaceOnUse">
<stop stop-color="#808080" stop-opacity="0.251"/>
<stop offset="0.54" stop-color="#808080" stop-opacity="0.122"/>
<stop offset="1" stop-color="#808080" stop-opacity="0.102"/>
</linearGradient>
<linearGradient id="paint1_linear_2445_2" x1="234.402" y1="108.626" x2="236.574" y2="163.324" gradientUnits="userSpaceOnUse">
<stop stop-opacity="0.122"/>
<stop offset="0.55" stop-opacity="0.09"/>
<stop offset="1" stop-opacity="0.02"/>
</linearGradient>
<linearGradient id="paint2_linear_2445_2" x1="214.201" y1="224.782" x2="237.561" y2="201.59" gradientUnits="userSpaceOnUse">
<stop stop-color="#808080" stop-opacity="0.251"/>
<stop offset="0.54" stop-color="#808080" stop-opacity="0.122"/>
<stop offset="1" stop-color="#808080" stop-opacity="0.102"/>
</linearGradient>
</defs>
</svg>
