<svg xmlns="http://www.w3.org/2000/svg" width="223.485" height="223.486" viewBox="0 0 223.485 223.486"><g transform="translate(-178 -164.079)"><circle cx="4.986" cy="4.986" r="4.986" transform="translate(341.647 164.079)" fill="#553f25"/><circle cx="4.986" cy="4.986" r="4.986" transform="translate(341.647 203.518)" fill="#553f25"/><circle cx="4.986" cy="4.986" r="4.986" transform="translate(391.512 213.491)" fill="#553f25"/><path d="M583.3,357.781c-2.082-3.435-9.356-3.346-9.356-3.346-6.622,9.84-22.542-.612-22.542-.612-11.824,5.29-19.038-11.567-19.038-11.567-15.909-2.379-13.451-19.088-13.451-19.088-7.915-1.589-5.694-15.9-5.694-15.9s4.392-3.6,2.231-6.237c-1.374-1.675-1.459-6.483-1.339-9.766a109.178,109.178,0,1,0,70.446,66.14C584,358.038,583.562,358.212,583.3,357.781Z" transform="translate(-195 -117.474)" fill="#5f4629"/><path d="M583.3,357.781c-2.082-3.435-9.356-3.346-9.356-3.346-6.622,9.84-22.542-.612-22.542-.612-11.824,5.29-19.038-11.567-19.038-11.567-15.909-2.379-13.451-19.088-13.451-19.088-7.915-1.589-5.694-15.9-5.694-15.9s4.392-3.6,2.231-6.237c-1.374-1.675-1.459-6.483-1.339-9.766a109.178,109.178,0,1,0,70.446,66.14C584,358.038,583.562,358.212,583.3,357.781Z" transform="translate(-195 -117.474)" opacity="0.1"/><path d="M581.433,361.035c-1.98-3.266-8.9-3.182-8.9-3.182-6.3,9.358-21.438-.582-21.438-.582-11.245,5.031-18.106-11-18.106-11-15.13-2.262-12.793-18.153-12.793-18.153-7.528-1.511-5.416-15.121-5.416-15.121s4.177-3.426,2.122-5.932c-1.307-1.593-1.388-6.166-1.274-9.288a103.834,103.834,0,1,0,67,62.9C582.094,361.279,581.681,361.444,581.433,361.035Z" transform="translate(-198.246 -118.44)" fill="#a6864c"/><path d="M277.434,449.785l2.292,3.82,4.583,7.64,1.528,5.348-3.056,4.584,3.82,9.168,1.528,5.348-3.056,3.056,6.112,4.584" transform="translate(-54.359 -156.191)" opacity="0.1"/><path d="M517.8,375.631v6.112l-3.82,9.932-2.292,5.348,3.82,6.876,1.528,4.584,6.112,2.292,2.292,3.82v9.167" transform="translate(-182.424 -115.652)" opacity="0.1"/><path d="M795.07,500.574l-6.112,3.82s-3.056,1.528-3.056,2.292V512.8" transform="translate(-420.727 -234.483)" opacity="0.1"/><path d="M550.455,341.925l1.528,7.64-1.528,5.348" transform="translate(-203.615 -97.225)" opacity="0.1"/><path d="M551.96,493.6l-4.584,6.875-5.348,4.584v3.056l3.056,3.82v4.584l-2.292,4.584" transform="translate(-199.008 -180.146)" opacity="0.1"/><path d="M418.122,207.1h-7.64l-6.112,5.348-9.932,5.348-4.584,3.82v1.528l-9.932,5.348-3.056,5.348" transform="translate(-108.717 -23.519)" opacity="0.1"/><path d="M450.456,347.211l-6.876,13.752-2.292,5.348-5.348,6.876s-3.82,6.876-4.584,7.64-6.112,2.292-6.112,2.292l7.64,7.64" transform="translate(-223.561 -150.642)" opacity="0.1"/><path d="M212.92,352.037l-1.528,9.932,1.528,6.112v10.7l-4.584,19.863,4.584,5.348,5.348,6.876" transform="translate(-16.584 -102.753)" opacity="0.1"/><path d="M243.727,362.149l4.584,2.292,3.056,9.932,6.112-1.528,3.056,5.348" transform="translate(-35.932 -108.281)" opacity="0.1"/><path d="M429.112,572.948l12.224-1.528,5.348-5.348h7.64" transform="translate(-137.279 -219.763)" opacity="0.1"/><path d="M265.636,545.848l4.584,5.348,7.64,2.292,5.348,1.528,1.528,8.4" transform="translate(-47.909 -208.707)" opacity="0.1"/><path d="M464.5,466.436l5.348-3.82,2.292-6.112,4.584-.764,2.292-7.64" transform="translate(-156.626 -155.269)" opacity="0.1"/></g></svg>