<svg width="525" height="207" viewBox="0 0 525 207" fill="none" xmlns="http://www.w3.org/2000/svg">
<g clip-path="url(#clip0_2444_2)">
<path d="M251.744 205.42L92.2874 205.475C84.2767 205.478 77.1009 201.338 73.0932 194.402C71.089 190.934 70.0867 187.129 70.0854 183.323C70.0841 179.518 71.0842 175.712 73.0855 172.243L152.763 27.1937C156.767 20.2543 163.94 16.1102 171.95 16.1074C179.961 16.1047 187.137 20.2438 191.145 27.1804L270.934 172.192C272.932 175.652 273.932 179.452 273.933 183.255C273.932 187.058 272.933 190.864 270.931 194.334C266.928 201.273 259.755 205.417 251.744 205.42ZM72.0898 183.321C72.0895 186.785 89.6851 179.32 91.508 182.476C95.1542 188.786 84.9986 203.478 92.2867 203.475C92.2867 203.475 265.557 199.647 269.199 193.335C271.019 190.178 271.929 186.715 271.928 183.254C271.927 179.792 271.015 176.33 269.191 173.175L189.403 28.1629C185.767 21.8707 179.239 18.1049 171.951 18.1074C164.666 18.1099 72.0901 179.856 72.0898 183.321Z" fill="#6D82DC"/>
<path d="M7.48514e-08 206.081C0.000230075 206.741 0.53044 207.271 1.19047 207.271L523.48 207.09C524.14 207.09 524.67 206.56 524.67 205.9C524.67 205.24 524.14 204.71 523.48 204.71L1.18965 204.891C0.52962 204.891 -0.000229925 205.421 7.48514e-08 206.081Z" fill="#CCCCCC"/>
<path d="M218.48 173.432C258.796 173.432 291.48 140.748 291.48 100.432C291.48 60.1149 258.796 27.4316 218.48 27.4316C178.163 27.4316 145.48 60.1149 145.48 100.432C145.48 140.748 178.163 173.432 218.48 173.432Z" fill="#F87369"/>
<path d="M218.493 145.182C222.195 145.182 225.195 142.181 225.195 138.479C225.195 134.777 222.195 131.776 218.493 131.776C214.791 131.776 211.79 134.777 211.79 138.479C211.79 142.181 214.791 145.182 218.493 145.182Z" fill="white"/>
<path d="M218.464 55.6814C217.848 59.7726 218.952 60.6287 218.958 78.2665C218.964 95.9043 222.623 119.552 218.486 119.554C214.349 119.555 212.836 70.7509 198.469 66.4315C181.579 61.353 220.457 42.4374 218.464 55.6814Z" fill="white"/>
<path d="M120.503 137.702L113.908 151.637C121.881 145.92 134.335 140.991 144.245 138.352C135.011 133.891 123.712 126.7 116.962 119.58L120.755 134.304C76.2814 125.246 44.3439 91.1275 44.3304 52.0449L42.7239 51.4922C42.7381 92.315 74.2336 128.453 120.503 137.702Z" fill="#3F3D56"/>
</g>
<defs>
<clipPath id="clip0_2444_2">
<rect width="525" height="207" fill="white"/>
</clipPath>
</defs>
</svg>
