<svg preserveAspectRatio="xMinYMin meet" xmlns="http://www.w3.org/2000/svg" xmlns:xlink="http://www.w3.org/1999/xlink" width="438" height="483" viewBox="0 0 438 483"><defs><linearGradient id="a" y1="0.5" x2="0.407" y2="0.5" gradientUnits="objectBoundingBox"><stop offset="0" stop-color="#ece7e7" stop-opacity="0.788"/><stop offset="1" stop-color="#fff"/></linearGradient><clipPath id="b"><rect width="438" height="483" transform="translate(1216.867)" fill="url(#a)"/></clipPath></defs><g transform="translate(-1216.867)" clip-path="url(#b)"><g transform="translate(1216.881 32.512)"><path d="M510.382,375.643V491.088l19.047,31.471,1.45,2.394h75.156l1.519-149.309Z" transform="translate(-192.561 -138.478)" fill="#e6e6e6"/><path d="M510.382,375.643V491.088l19.047,31.471L530.6,375.643Z" transform="translate(-192.561 -138.478)" opacity="0.1"/><path d="M160.141,370.766V486.211l-19.047,31.47-1.45,2.393H64.488L62.97,370.766Z" transform="translate(-23.758 -136.68)" fill="#e6e6e6"/><path d="M206.767,370.766V486.211l-19.047,31.47L186.55,370.766Z" transform="translate(-70.383 -136.68)" opacity="0.1"/><path d="M455.545,353.625v6.926H47.121V350.546l37.957-20.011H422.143Z" transform="translate(-17.779 -121.847)" fill="#e6e6e6"/><path d="M455.545,365.311v6.926H47.121V362.232Z" transform="translate(-17.779 -133.533)" opacity="0.1"/><path d="M125.354,418.822h-18.22l-7.591-5.387H133.7Z" transform="translate(-37.557 -152.411)" fill="#3f3d56"/><path d="M125.354,454.176h-18.22l-7.591-5.387H133.7Z" transform="translate(-37.557 -165.446)" fill="#3f3d56"/><path d="M125.354,504.16h-18.22l-7.591-5.388H133.7Z" transform="translate(-37.557 -183.874)" fill="#3f3d56"/><path d="M125.354,554.143h-18.22l-7.591-5.387H133.7Z" transform="translate(-37.557 -202.303)" fill="#3f3d56"/><path d="M583.345,423.7h18.22l7.591-5.387H574.994Z" transform="translate(-216.939 -154.209)" fill="#3f3d56"/><path d="M583.345,459.053h18.22l7.591-5.387H574.994Z" transform="translate(-216.939 -167.244)" fill="#3f3d56"/><path d="M583.345,509.037h18.22l7.591-5.387H574.994Z" transform="translate(-216.939 -185.672)" fill="#3f3d56"/><path d="M583.345,559.019h18.22l7.591-5.387H574.994Z" transform="translate(-216.939 -204.1)" fill="#3f3d56"/><path d="M753.474,232.9H600.089a5.841,5.841,0,0,0-5.8,5.882v104.75a5.841,5.841,0,0,0,5.8,5.881h58.225l-2.181,14.12s-12.466,6.714-3.7,6.912,50.061,0,50.061,0,7.986,0-4.675-7.109l-2.052-13.922h57.707a5.841,5.841,0,0,0,5.8-5.882V238.783a5.841,5.841,0,0,0-5.8-5.881Z" transform="translate(-374.661 -157.715)" fill="#3f3d56"/><rect width="153.883" height="87.286" transform="translate(225.18 81.408)" fill="#f2f2f2"/><ellipse cx="0.974" cy="0.987" rx="0.974" ry="0.987" transform="translate(301.147 77.656)" fill="#f2f2f2"/><ellipse cx="3.701" cy="3.752" rx="3.701" ry="3.752" transform="translate(298.42 179.95)" fill="#f2f2f2"/><path d="M412.415,349.679v1.975h-104.8v-1.58l.144-.4,2.583-7.109h99.927Z" transform="translate(-116.061 -126.284)" fill="#3f3d56"/><path d="M764.44,460.631c-.191.827-.912,1.7-2.54,2.526-5.844,2.962-17.726-.79-17.726-.79s-9.155-1.58-9.155-5.727a7.292,7.292,0,0,1,.8-.484c2.457-1.318,10.6-4.569,25.047.138a6.017,6.017,0,0,1,2.745,1.824,2.938,2.938,0,0,1,.826,2.513Z" transform="translate(-427.757 -239.169)" fill="#3f3d56"/><path d="M764.926,460.631c-7.153,2.779-13.528,2.986-20.071-1.621a14.24,14.24,0,0,0-8.547-2.854c2.457-1.318,10.6-4.569,25.047.138a6.017,6.017,0,0,1,2.745,1.824A2.937,2.937,0,0,1,764.926,460.631Z" transform="translate(-428.243 -239.169)" opacity="0.1"/><ellipse cx="2.532" cy="0.79" rx="2.532" ry="0.79" transform="translate(325.183 218.261)" fill="#f2f2f2"/><path d="M412.415,353.831v1.975h-104.8v-1.58l.144-.395Z" transform="translate(-116.061 -130.436)" opacity="0.1"/><path d="M323.3,113.823a5.207,5.207,0,0,0-3.054.692,8.066,8.066,0,0,0-2.066,2.764,32.925,32.925,0,0,1-8.885,10.175c-2.64,1.961-6,4.406-5.545,8.021a10.93,10.93,0,0,0,1.287,3.386c2.435,4.984,9.081,8.836,8.428,14.523,2.42-4.107-.817-6.137,1.6-10.244,1.152-1.956,3.154-4.163,4.894-2.935.583.411.965,1.149,1.572,1.51,1.447.861,2.987-.785,4.268-1.951,4.418-4.02,10.7-2.967,16.2-1.715,2.6.591,5.446,1.367,6.98,3.882,2.017,3.306-1.916,6.877-2.91,10.615a2.058,2.058,0,0,0,.424,1.84,2,2,0,0,0,1.732.7c1.65-.165,3.6-.3,3.7-1.034,2.075.075,4.618-.163,5.507-2.354a9.329,9.329,0,0,0,.426-2.679c.326-3.68,1.867-7.037,2.888-10.54s1.464-7.607-.258-10.713a12.363,12.363,0,0,0-2.257-2.78C348.454,115.39,335.6,113.808,323.3,113.823Z" transform="translate(-265.027 -113.805)" fill="#2f2e41"/><path d="M317.982,185.877s2.126,17.959-5.669,19.4,7.086,25.861,7.086,25.861l35.429,4.31-8.5-28.734s-5.669-2.155-2.126-16.522S317.982,185.877,317.982,185.877Z" transform="translate(-267.423 -139.115)" fill="#ffb8b8"/><path d="M46.487,562.764l2.835,39.51H64.2l-4.251-39.51Z" transform="translate(-17.539 -207.467)" fill="#ffb8b8"/><path d="M221.721,443.585l2.125,33.044,16.3-7.183-6.378-27.3Z" transform="translate(-83.653 -162.998)" fill="#ffb8b8"/><path d="M271.011,419.7s.709,41.665,4.96,55.314,3.543,14.367,2.834,16.522-1.417.718-1.417,4.31-1.417,60.342,0,65.37-4.251,13.649,0,14.367,24.092,0,24.8-4.31-5.669-5.747-2.834-8.62,7.086-61.779,7.086-61.779l9.92-40.946,18.423-21.551h38.972L385.8,485.791s-4.96,13.649-1.417,13.649,24.8,4.31,24.8-11.494-7.086-62.5-8.5-63.933.709-6.465-1.417-8.62-26.926-17.241-36.137-20.114-22.134-6.293-22.134-6.293Z" transform="translate(-252.692 -215.261)" fill="#2f2e41"/><path d="M481.462,589.783s-10.629-3.592-15.589,7.184-2.834,13.649-2.834,13.649,16.3,5.747,19.132,2.873c1.233-1.25,5.149-1.685,9.179-1.776,6.139-.14,7.772-8.945,1.974-10.995q-.259-.092-.525-.159C487.131,599.121,481.462,589.783,481.462,589.783Z" transform="translate(-324.971 -289.081)" fill="#2f2e41"/><ellipse cx="21.257" cy="21.551" rx="21.257" ry="21.551" transform="translate(45.245 15.513)" fill="#ffb8b8"/><path d="M293.277,229.183s34.72,7.184,43.223-4.31S348.545,257.2,348.545,257.2l4.251,45.975-6.377,25.143s-33.3,27.3-43.932,29.453-26.926,3.592-26.926,3.592,4.96-79.738,4.96-81.174S293.277,229.183,293.277,229.183Z" transform="translate(-254.409 -154.046)" fill="#536dfe"/><path d="M294.656,210.286s-7.725-4.486-9.851-.176S262.839,225.2,260.714,225.2s4.251,59.624,1.417,66.808-16.3,59.624-8.5,63.934,2.126-4.31,9.92,6.465,46.057,10.775,48.183,6.465-17.006-36.636-13.463-66.808,9.212-71.836,4.251-77.583S294.656,210.286,294.656,210.286Z" transform="translate(-245.229 -148.622)" fill="#2f2e41"/><path d="M362.042,217.156l.987-3.443s29.482,9.909,30.9,16.374.709,51.722-4.251,55.314-12.046,9.339-7.086,17.959,10.629,17.959,14.88,18.677,12.046,5.747,9.92,10.775-27.634-4.31-27.634-4.31-17.006-12.93-16.3-33.044S362.042,217.156,362.042,217.156Z" transform="translate(-287.037 -150.64)" fill="#2f2e41"/><path d="M382.474,353.438l-17.006,32.326s-24.8,25.861-10.629,28.734,21.966-23.706,21.966-23.706l18.423-26.579Z" transform="translate(-282.669 -202.155)" fill="#ffb8b8"/><path d="M327.165,122.757a4.768,4.768,0,0,0-2.486.489A5.851,5.851,0,0,0,323,125.2a24.644,24.644,0,0,1-7.233,7.191c-2.149,1.386-4.881,3.114-4.514,5.669a7.137,7.137,0,0,0,1.048,2.393,19.042,19.042,0,0,1,2.256,11.732l5.909-8.708c.938-1.382,2.568-2.943,3.984-2.075.474.291.786.812,1.279,1.067,1.178.609,2.431-.555,3.474-1.379,3.6-2.842,8.71-2.1,13.185-1.212,2.113.418,4.433.966,5.682,2.744,2.075,2.954-.092,7.221,1.12,10.634a3.14,3.14,0,0,0,1.279-2.07c1.689.053,3.759-.115,4.483-1.664a5.8,5.8,0,0,0,.347-1.894c.266-2.6,1.52-4.974,2.351-7.45s1.192-5.377-.21-7.572a9.109,9.109,0,0,0-1.837-1.965C347.645,123.865,337.184,122.747,327.165,122.757Z" transform="translate(-267.861 -117.101)" fill="#2f2e41"/><path d="M398.433,235.1l6.6,1.777s15.364,39.888,11.821,67.186-5.669,21.551-5.669,21.551-5.669-12.93-18.423-10.057Z" transform="translate(-298.628 -158.524)" fill="#2f2e41"/><path d="M282.6,729.683c-1.709,2.354-1.366,5.719-2.88,8.207-1.312,2.156-3.785,3.287-5.426,5.2a13.94,13.94,0,0,0-1.395,2.034c-1.522,2.585-2.76,5.9-1.26,8.5,1.206,2.091,3.741,2.908,6.066,3.465a21.97,21.97,0,0,0,8.964.729c2.973-.538,5.878-2.383,6.938-5.25a20.467,20.467,0,0,1,.742-2.122c1.611-3.216,6.665-3.25,8.314-6.446,1.154-2.237.093-4.94-.967-7.224l-3.238-6.975c-1.075-2.315-5.431-.983-7.7-1.538C287.8,727.534,284.734,726.737,282.6,729.683Z" transform="translate(-252.674 -340.098)" fill="#2f2e41"/><path d="M251.667,373.259l29.76,46.693s18.423,23.706,24.092,12.93-19.84-28.734-19.84-28.734L266.547,368.23Z" transform="translate(-245.394 -207.609)" fill="#ffb8b8"/><path d="M262.746,236.534l-5.669-1.437s-11.337,3.592-14.171,18.677-.709,75.427,2.834,76.146,17.5-10.507,19.732-8.127-4.852-9.832-2.726-16.3S262.746,236.534,262.746,236.534Z" transform="translate(-241.593 -158.524)" fill="#2f2e41"/><g transform="translate(246.181 110.076)"><rect width="18.314" height="4.47" transform="translate(23.062)" fill="#536dfe"/><rect width="6.444" height="4.47" transform="translate(98.352)" fill="#536dfe"/><rect width="6.444" height="4.47" transform="translate(111.24)" fill="#536dfe"/><rect width="43.75" height="4.47" transform="translate(47.82)" fill="#536dfe"/><rect width="18.314" height="4.47" transform="translate(0 28.881)" fill="#536dfe"/><rect width="6.444" height="4.47" transform="translate(75.29 28.881)" fill="#536dfe"/><rect width="6.444" height="4.47" transform="translate(88.178 28.881)" fill="#536dfe"/><rect width="43.75" height="4.47" transform="translate(24.758 28.881)" fill="#536dfe"/><rect width="18.314" height="4.47" transform="translate(75.629 9.971)" fill="#536dfe"/><rect width="18.314" height="4.47" transform="translate(100.387 9.971)" fill="#536dfe"/><rect width="6.444" height="4.47" transform="translate(0 9.971)" fill="#536dfe"/><rect width="6.444" height="4.47" transform="translate(12.888 9.971)" fill="#536dfe"/><rect width="43.75" height="4.47" transform="translate(25.775 9.971)" fill="#536dfe"/><rect width="18.314" height="4.47" transform="translate(37.645 19.598)" fill="#536dfe"/><rect width="18.314" height="4.47" transform="translate(12.888 19.598)" fill="#536dfe"/><rect width="6.444" height="4.47" transform="translate(0 19.598)" fill="#536dfe"/><rect width="6.444" height="4.47" transform="translate(112.257 19.598)" fill="#536dfe"/><rect width="43.75" height="4.47" transform="translate(62.063 19.598)" fill="#536dfe"/></g></g></g></svg>