<svg xmlns="http://www.w3.org/2000/svg" width="95" height="95" viewBox="0 0 95 95">
  <g id="Logo" transform="translate(-1540 -681)">
    <g id="Path_540" data-name="Path 540" transform="translate(1540 681)" fill="#2e2d40">
      <path d="M 47.5 94 C 41.22209930419922 94 35.13251113891602 92.77069091796875 29.40041160583496 90.34621429443359 C 23.86333656311035 88.00422668457031 18.89033699035645 84.65126037597656 14.61953735351562 80.38046264648438 C 10.3487377166748 76.10966491699219 6.99577522277832 71.13666534423828 4.653787612915039 65.59958648681641 C 2.229312419891357 59.86748886108398 1 53.77790069580078 1 47.5 C 1 41.22209930419922 2.229312419891357 35.13251113891602 4.653787612915039 29.40041160583496 C 6.99577522277832 23.86333656311035 10.3487377166748 18.89033699035645 14.61953735351562 14.61953735351562 C 18.89033699035645 10.3487377166748 23.86333656311035 6.99577522277832 29.40041160583496 4.653787612915039 C 35.13251113891602 2.229312419891357 41.22209930419922 1 47.5 1 C 53.77790069580078 1 59.86748886108398 2.229312419891357 65.59958648681641 4.653787612915039 C 71.13666534423828 6.99577522277832 76.10966491699219 10.3487377166748 80.38046264648438 14.61953735351562 C 84.65126037597656 18.89033699035645 88.00422668457031 23.86333656311035 90.34621429443359 29.40041160583496 C 92.77069091796875 35.13251113891602 94 41.22209930419922 94 47.5 C 94 53.77790069580078 92.77069091796875 59.86748886108398 90.34621429443359 65.59958648681641 C 88.00422668457031 71.13666534423828 84.65126037597656 76.10966491699219 80.38046264648438 80.38046264648438 C 76.10966491699219 84.65126037597656 71.13666534423828 88.00422668457031 65.59958648681641 90.34621429443359 C 59.86748886108398 92.77069091796875 53.77790069580078 94 47.5 94 Z" stroke="none"/>
      <path d="M 47.5 2 C 41.35665893554688 2 35.39814376831055 3.202728271484375 29.78997039794922 5.574798583984375 C 24.37210083007812 7.866355895996094 19.50592803955078 11.14735412597656 15.32664489746094 15.32664489746094 C 11.14735412597656 19.50592803955078 7.866355895996094 24.37210083007812 5.574798583984375 29.78997039794922 C 3.202728271484375 35.39814376831055 2 41.35665893554688 2 47.5 C 2 53.64334106445312 3.202728271484375 59.60185623168945 5.574798583984375 65.21002960205078 C 7.866355895996094 70.62789916992188 11.14735412597656 75.49407196044922 15.32664489746094 79.67335510253906 C 19.50592803955078 83.85264587402344 24.37210083007812 87.13364410400391 29.78997039794922 89.42520141601562 C 35.39814376831055 91.79727172851562 41.35665893554688 93 47.5 93 C 53.64334106445312 93 59.60185623168945 91.79727172851562 65.21002960205078 89.42520141601562 C 70.62789916992188 87.13364410400391 75.49407196044922 83.85264587402344 79.67335510253906 79.67335510253906 C 83.85264587402344 75.49407196044922 87.13364410400391 70.62789916992188 89.42520141601562 65.21002960205078 C 91.79727172851562 59.60185623168945 93 53.64334106445312 93 47.5 C 93 41.35665893554688 91.79727172851562 35.39814376831055 89.42520141601562 29.78997039794922 C 87.13364410400391 24.37210083007812 83.85264587402344 19.50592803955078 79.67335510253906 15.32664489746094 C 75.49407196044922 11.14735412597656 70.62789916992188 7.866355895996094 65.21002960205078 5.574798583984375 C 59.60185623168945 3.202728271484375 53.64334106445312 2 47.5 2 M 47.5 0 C 73.73351287841797 0 95 21.26648712158203 95 47.5 C 95 73.73351287841797 73.73351287841797 95 47.5 95 C 21.26648712158203 95 0 73.73351287841797 0 47.5 C 0 21.26648712158203 21.26648712158203 0 47.5 0 Z" stroke="none" fill="#13b3f2"/>
    </g>
    <text id="_KDZ_" data-name="&lt;KDZ/&gt;" transform="translate(1549 736)" fill="#fbac39" font-size="20" font-family="Montserrat-SemiBold, Montserrat" font-weight="600" letter-spacing="0.05em"><tspan x="0" y="0">&lt;</tspan><tspan y="0" fill="#13b3f2" font-family="Montserrat-Regular, Montserrat" font-weight="400">KDZ</tspan><tspan y="0">/&gt;</tspan></text>
  </g>
</svg>
