<svg width="488" height="194" viewBox="0 0 488 194" fill="none" xmlns="http://www.w3.org/2000/svg">
<path d="M244.021 193.181C378.748 193.181 487.965 185.95 487.965 177.031C487.965 168.111 378.748 160.881 244.021 160.881C109.294 160.881 0.0770264 168.111 0.0770264 177.031C0.0770264 185.95 109.294 193.181 244.021 193.181Z" fill="#F2F2F2"/>
<path d="M234.672 0.234375C194.927 0.234375 166.39 25.7344 166.39 85.2344C166.39 152.666 194.927 170.516 234.672 170.516C274.417 170.516 304.654 150.967 304.654 85.2344C304.653 14.9674 274.417 0.234375 234.672 0.234375ZM234.933 148.134C207.405 148.134 193.023 131.984 193.023 85.2794C193.023 44.0694 207.994 22.3374 235.523 22.3374C263.052 22.3374 278.023 36.6124 278.023 85.2794C278.023 130.807 262.463 148.134 234.935 148.134H234.933Z" fill="#F87369"/>
<path d="M142.591 123.482H126.158V75.091C126.158 72.5207 125.137 70.0558 123.32 68.2384C121.502 66.4209 119.037 65.3999 116.467 65.3999H112.616C110.046 65.3999 107.581 66.4209 105.763 68.2384C103.946 70.0558 102.925 72.5207 102.925 75.091V123.482H56.5741C55.6205 123.482 54.6832 123.235 53.8531 122.765C53.023 122.296 52.3284 121.62 51.8365 120.803C51.3447 119.986 51.0724 119.056 51.046 118.103C51.0196 117.15 51.2401 116.206 51.6861 115.363L100.744 22.5119C101.356 21.3544 101.726 20.0849 101.834 18.7801C101.941 17.4753 101.783 16.1623 101.369 14.9202C100.955 13.6782 100.294 12.5329 99.425 11.5536C98.5561 10.5742 97.4979 9.78104 96.3141 9.22194L93.414 7.85392C91.1654 6.7919 88.5945 6.635 86.2333 7.41566C83.8722 8.19632 81.9015 9.85479 80.729 12.0479L20.8961 123.978C19.8764 125.885 19.3433 128.015 19.3441 130.178C19.3454 133.662 20.7306 137.004 23.1951 139.467C25.6596 141.931 29.0015 143.314 32.4861 143.314H102.926V173.914C102.926 176.995 104.15 179.949 106.328 182.128C108.507 184.306 111.461 185.53 114.542 185.53C117.623 185.53 120.577 184.306 122.756 182.128C124.934 179.949 126.158 176.995 126.158 173.914V143.314H142.591C145.221 143.314 147.743 142.269 149.603 140.409C151.462 138.549 152.507 136.027 152.507 133.397C152.507 130.767 151.462 128.245 149.603 126.385C147.743 124.526 145.221 123.481 142.591 123.481V123.482Z" fill="#6D82DC"/>
<path d="M446.882 123.482H430.45V75.0909C430.45 72.5209 429.429 70.0561 427.612 68.2387C425.795 66.4213 423.33 65.4002 420.76 65.3999H416.909C415.636 65.3999 414.376 65.6506 413.2 66.1376C412.025 66.6246 410.956 67.3384 410.056 68.2383C409.157 69.1382 408.443 70.2066 407.956 71.3823C407.469 72.5581 407.218 73.8183 407.218 75.0909V123.482H360.866C359.912 123.482 358.975 123.235 358.145 122.766C357.315 122.297 356.62 121.622 356.128 120.805C355.635 119.988 355.363 119.058 355.336 118.105C355.309 117.152 355.529 116.208 355.974 115.365L405.032 22.5139C405.644 21.3563 406.014 20.0868 406.122 18.782C406.229 17.4773 406.071 16.1642 405.657 14.9222C405.243 13.6802 404.582 12.5349 403.713 11.5555C402.844 10.5762 401.786 9.78301 400.602 9.22391L397.702 7.8559C395.453 6.79387 392.882 6.63694 390.521 7.4176C388.16 8.19826 386.189 9.85676 385.017 12.0499L325.189 123.978C324.169 125.885 323.636 128.015 323.637 130.178C323.638 133.663 325.024 137.005 327.489 139.468C329.954 141.932 333.297 143.315 336.782 143.314H407.222V173.914C407.222 176.995 408.446 179.949 410.624 182.128C412.803 184.306 415.757 185.53 418.838 185.53C421.919 185.53 424.873 184.306 427.052 182.128C429.23 179.949 430.454 176.995 430.454 173.914V143.314H446.882C449.512 143.314 452.035 142.269 453.894 140.409C455.754 138.549 456.799 136.027 456.799 133.397C456.799 132.095 456.542 130.805 456.044 129.602C455.546 128.399 454.815 127.306 453.894 126.385C452.973 125.464 451.88 124.734 450.677 124.235C449.474 123.737 448.184 123.481 446.882 123.481V123.482Z" fill="#6D82DC"/>
<path d="M244.162 93.7926C244.166 94.3742 243.948 94.9354 243.552 95.3616C243.365 95.5658 243.138 95.729 242.885 95.841C242.631 95.953 242.358 96.0115 242.081 96.0126H237.456C236.886 95.9925 236.348 95.7477 235.958 95.3317C235.568 94.9157 235.359 94.3624 235.376 93.7926C235.373 93.3417 235.505 92.9002 235.755 92.5246C236.778 92.3806 237.811 92.3098 238.844 92.3126C240.577 92.3069 242.305 92.5056 243.991 92.9046C244.105 93.1867 244.163 93.4883 244.162 93.7926Z" fill="white"/>
<path d="M218.264 67.8017C219.541 67.8017 220.576 66.7666 220.576 65.4897C220.576 64.2129 219.541 63.1777 218.264 63.1777C216.987 63.1777 215.952 64.2129 215.952 65.4897C215.952 66.7666 216.987 67.8017 218.264 67.8017Z" fill="white"/>
<path d="M261.272 67.8017C262.549 67.8017 263.584 66.7666 263.584 65.4897C263.584 64.2129 262.549 63.1777 261.272 63.1777C259.995 63.1777 258.96 64.2129 258.96 65.4897C258.96 66.7666 259.995 67.8017 261.272 67.8017Z" fill="white"/>
</svg>
