<svg xmlns="http://www.w3.org/2000/svg" xmlns:xlink="http://www.w3.org/1999/xlink" width="400.844" height="321.68" viewBox="0 0 400.844 321.68"><defs><linearGradient id="a" x1="0.5" y1="1" x2="0.5" gradientUnits="objectBoundingBox"><stop offset="0" stop-color="gray" stop-opacity="0.251"/><stop offset="0.54" stop-color="gray" stop-opacity="0.122"/><stop offset="1" stop-color="gray" stop-opacity="0.102"/></linearGradient><linearGradient id="b" x1="-0.381" y1="1.434" x2="-0.34" y2="2.438" gradientUnits="objectBoundingBox"><stop offset="0" stop-opacity="0.122"/><stop offset="0.55" stop-opacity="0.09"/><stop offset="1" stop-opacity="0.02"/></linearGradient><linearGradient id="c" y1="1" y2="0" xlink:href="#a"/></defs><g transform="translate(-1298.87 -381.306)"><g transform="translate(1298.87 391.496)"><path d="M149.44,481.518l7.286,3.974-4.636,15.233-7.285.662-3.974-8.61Z" transform="translate(-73.937 -225.801)" fill="#ffb9b9"/><path d="M113.738,527.943v7.285l-11.259-.662.157-6Z" transform="translate(-60.754 -241.759)" fill="#ffb9b9"/><path d="M138.906,348.3l-3.974,49.674-12.584,72.854-19.869-2.649,6.623-57.621-2.649-52.985Z" transform="translate(-60.754 -180.006)" fill="#2f2e41"/><path d="M210.549,458.211l47.687.662,5.3,36.427-32.453,15.233-7.948,29.142,40.4,43.05-15.9,19.869s-22.519-30.466-39.077-47.687-8.61-69.543-8.61-69.543Z" transform="translate(-185.382 -327.009)" fill="#2f2e41"/><ellipse cx="14.571" cy="14.571" rx="14.571" ry="14.571" transform="translate(39.076 8.011)" fill="#ffb9b9"/><path d="M256.875,304.365v14.571l-9.935,15.9s-15.233-11.259-11.922-13.909,3.974-23.181,3.974-23.181Z" transform="translate(-197.93 -271.848)" fill="#ffb9b9"/><path d="M112.76,158.066l9.935,11.921-3.974,82.789-31.128-.662-5.3-72.192,6.623-18.545L93.46,155.2l8.041,12.142Z" transform="translate(-53.815 -113.627)" fill="#fff"/><path d="M292.792,375.989l7.285,27.817-7.285,27.817,11.922,15.9,10.6-50.336s-7.948-41.063-8.61-45.7-1.987-5.3-1.987-5.3l-5.3.662Z" transform="translate(-217.951 -288.5)" fill="#2f2e41"/><path d="M60.753,220.154l-4.636,8.611-1.325,14.571,2.649,16.558-9.272,15.233L38.9,233.4l9.934-53.648h3.974Z" transform="translate(-38.897 -122.068)" fill="#2f2e41"/><path d="M292.982,646.94s9.272,2.649,12.584,3.312-1.987,13.246-1.987,13.246-3.312,17.22-3.974,20.532-5.3,14.571-11.259,15.9-1.987-23.181-1.987-23.181-2.649-7.948-2.649-10.6,3.974-1.325,3.974-1.325C298.281,663.5,292.982,646.94,292.982,646.94Z" transform="translate(-214.829 -391.885)" fill="#2f2e41"/><path d="M255.013,716.29c-.662,3.974.662,3.974-9.935,5.3s-7.948-7.286-7.948-7.286a55.651,55.651,0,0,1,2.649-11.922c1.987-5.3,12.584,1.325,12.584,1.325S255.675,712.316,255.013,716.29Z" transform="translate(-198.716 -410.237)" fill="#2f2e41"/><path d="M238.514,284.64l-.345,5.89a66.674,66.674,0,0,1-4.936-19.6c-.662-9.935,10.6-11.922,17.22-12.584s17.882,3.974,17.882,9.272-11.922,3.974-16.558,2.649-6.623,9.935-6.623,9.935l-2.649.662Z" transform="translate(-197.468 -258.284)" fill="#2f2e41"/><path d="M126.731,164.259l-3.909-4.69-11.259,9.272,11.259,7.948Z" transform="translate(-63.876 -115.13)" fill="#fff"/><path d="M92.386,161.493l4.636-5.961,7.948,11.921-9.935,7.286Z" transform="translate(-57.284 -113.742)" fill="#fff"/><path d="M259.244,377.8l-2.649,25.168,5.3,15.233,3.312,14.571s0,13.909-13.246,14.571-24.506-41.726-24.506-41.726-1.987,9.272-3.312,14.571S200.3,446.684,200.3,446.684s-5.3-.662-9.935-11.259,9.272-20.532,9.272-20.532l3.974-13.909-1.325-17.22-9.272-45.038,27.486-14.24-2.98,38.083,9.935,29.8,14.9-65.9,4.967,3.643,21.194,8.61Z" transform="translate(-182.416 -281.041)" fill="#2f2e41"/></g><g transform="translate(1280.03 377)"><path d="M369.78,71.81,539.963,85.766Z" transform="translate(-120.28 -45.468)" fill="#6c63ff"/><path d="M433.47,238.742,265.79,271.187,222.19,42.561,389.869,10.12Z" transform="translate(-25.41 -5.814)" fill="#e0e0e0"/><path d="M175.474,0V239.249H0Z" transform="translate(214.683 18.437)" fill="url(#a)"/><rect width="170.748" height="232.801" transform="translate(217.048 21.659)" fill="#fff"/><path d="M613.245,187.542a28.009,28.009,0,1,0,37.171-27.012l.086,7.266a9.548,9.548,0,0,1-9.369,9.691h0a9.544,9.544,0,0,1-9.6-9.437l-.086-7.266a28.219,28.219,0,0,0-18.2,26.758Z" transform="translate(-338.659 -125.715)" fill="url(#b)"/><path d="M669.287,177.059a28.009,28.009,0,1,0-37.492,26.551v-7.266a9.545,9.545,0,0,1,9.484-9.552h0a9.544,9.544,0,0,1,9.484,9.552v7.269a28.219,28.219,0,0,0,18.525-26.555Z" transform="translate(-338.676 -116.522)" fill="#2f2e41"/><ellipse cx="10.766" cy="10.845" rx="10.766" ry="10.845" transform="translate(291.854 44.134)" fill="#fff" stroke="#fff" stroke-miterlimit="10" stroke-width="1"/><path d="M674.614,255.09h0a9.544,9.544,0,0,0-9.484,9.552v7.269a27.923,27.923,0,0,0,18.968,0v-7.269A9.545,9.545,0,0,0,674.614,255.09Z" transform="translate(-372.011 -186.498)" fill="#fff" stroke="#fff" stroke-miterlimit="10" stroke-width="1"/><path d="M659.232,182.042a10.583,10.583,0,0,1-1.147-5.465,7.316,7.316,0,0,1,2.386-4.947,9.9,9.9,0,0,1,5.747-1.986,52.785,52.785,0,0,0,6.158-.468,12.859,12.859,0,0,0,8.216-5.615,17.633,17.633,0,0,1-.046,4.772,5.839,5.839,0,0,1-2.454,3.929c1.636-.761,1.457,1.025,1.1,2.093.811.986,2.779,1.15,2.879,2.425a8.091,8.091,0,0,1-.411,3.769c-.493,1.175.036,3.251-1.229,3.34" transform="translate(-367.471 -127.663)" fill="#fff" stroke="#fff" stroke-miterlimit="10" stroke-width="1"/><path d="M715.81,187.26s7.5.661,2.165,11.891" transform="translate(-404.588 -142.897)" fill="#fff"/><rect width="23.193" height="23.361" transform="translate(233.044 205.727)" fill="url(#c)"/><rect width="19.193" height="19.332" transform="translate(235.041 207.741)" fill="#8898fa"/><rect width="55.981" height="4.029" transform="translate(274.63 109.06)" fill="#f97c6a"/><rect width="94.37" height="4.029" transform="translate(274.63 114.7)" fill="#e0e0e0"/><rect width="94.37" height="4.029" transform="translate(274.63 120.337)" fill="#e0e0e0"/><rect width="55.981" height="4.029" transform="translate(274.63 159.408)" fill="#5c94cc"/><rect width="94.37" height="4.029" transform="translate(274.63 165.044)" fill="#e0e0e0"/><rect width="94.37" height="4.029" transform="translate(274.63 170.685)" fill="#e0e0e0"/><rect width="55.981" height="4.029" transform="translate(274.63 209.752)" fill="#8898fa"/><rect width="94.37" height="4.029" transform="translate(274.63 215.393)" fill="#e0e0e0"/><rect width="94.37" height="4.029" transform="translate(274.63 221.033)" fill="#e0e0e0"/><path d="M182.66,505.22h15.263a3.929,3.929,0,0,1,3.929,3.929v.993a3.929,3.929,0,0,1-3.929,3.929H182.66Z" transform="translate(0 -324.062)" fill="#fff"/></g></g></svg>