<svg width="229" height="124" viewBox="0 0 229 124" fill="none" xmlns="http://www.w3.org/2000/svg">
<path d="M186.153 0.105469H0.0789795V119.275H186.153V0.105469Z" fill="#E6E6E6"/>
<path d="M180.832 15.0518H5.40002V112.225H180.832V15.0518Z" fill="white"/>
<path d="M186.074 0H0V7.905H186.074V0Z" fill="#3A2876"/>
<path d="M5.874 5.50617C6.68309 5.50617 7.339 4.85027 7.339 4.04117C7.339 3.23207 6.68309 2.57617 5.874 2.57617C5.0649 2.57617 4.409 3.23207 4.409 4.04117C4.409 4.85027 5.0649 5.50617 5.874 5.50617Z" fill="white"/>
<path d="M11.436 5.50617C12.2451 5.50617 12.901 4.85027 12.901 4.04117C12.901 3.23207 12.2451 2.57617 11.436 2.57617C10.6269 2.57617 9.97101 3.23207 9.97101 4.04117C9.97101 4.85027 10.6269 5.50617 11.436 5.50617Z" fill="white"/>
<path d="M16.997 5.50617C17.8061 5.50617 18.462 4.85027 18.462 4.04117C18.462 3.23207 17.8061 2.57617 16.997 2.57617C16.1879 2.57617 15.532 3.23207 15.532 4.04117C15.532 4.85027 16.1879 5.50617 16.997 5.50617Z" fill="white"/>
<path d="M66.419 25.1348H21.341V102.143H66.419V25.1348Z" fill="#E6E6E6"/>
<path d="M111.765 25.1348H74.2V46.3318H111.765V25.1348Z" fill="#F87269"/>
<path d="M111.765 52.2354H74.2V75.0424H111.765V52.2354Z" fill="#53B8CA"/>
<path d="M111.765 80.9463H74.2V102.143H111.765V80.9463Z" fill="#5D8FCB"/>
<path d="M164.892 25.1348H119.814V58.6948H164.892V25.1348Z" fill="#E6E6E6"/>
<path d="M164.892 68.583H119.814V102.143H164.892V68.583Z" fill="#6C63FF"/>
<path d="M172.699 24.1445C166.918 19.2664 159.844 16.1738 152.337 15.2429C144.83 14.3121 137.215 15.5831 130.418 18.9014C123.62 22.2197 117.934 27.4422 114.05 33.9333C110.167 40.4245 108.254 47.9044 108.544 55.463C108.834 63.0215 111.315 70.3328 115.684 76.5072C120.054 82.6815 126.124 87.4528 133.156 90.2402C140.188 93.0277 147.878 93.7113 155.291 92.2077C162.704 90.7042 169.521 87.0783 174.911 81.7715L222.774 122.157C223.132 122.484 223.552 122.735 224.009 122.895C224.467 123.056 224.952 123.122 225.435 123.09C225.919 123.059 226.391 122.93 226.824 122.711C227.256 122.493 227.64 122.189 227.952 121.819C228.265 121.448 228.499 121.019 228.642 120.555C228.784 120.092 228.831 119.605 228.781 119.123C228.73 118.641 228.583 118.174 228.348 117.751C228.113 117.327 227.794 116.955 227.412 116.657L179.549 76.2704C185.109 68.2905 187.489 58.5217 186.222 48.8786C184.955 39.2355 180.132 30.4131 172.699 24.1405V24.1445ZM169.614 72.3854C165.885 76.8038 160.929 80.0172 155.374 81.6193C149.819 83.2214 143.913 83.1403 138.404 81.3862C132.895 79.6321 128.03 76.2838 124.423 71.7647C120.817 67.2456 118.632 61.7587 118.144 55.9976C117.656 50.2366 118.887 44.4602 121.682 39.3989C124.476 34.3375 128.709 30.2186 133.845 27.5628C138.98 24.907 144.788 23.8336 150.534 24.4785C156.279 25.1233 161.705 27.4573 166.124 31.1855C169.059 33.6614 171.477 36.6912 173.241 40.1019C175.005 43.5125 176.079 47.2372 176.403 51.0632C176.727 54.8892 176.294 58.7416 175.129 62.4003C173.964 66.0589 172.09 69.4523 169.613 72.3865L169.614 72.3854Z" fill="#3F3D56"/>
<path opacity="0.3" d="M128.417 75.8762C122.809 71.1435 119.185 64.4749 118.266 57.1944C117.347 49.9139 119.2 42.5541 123.456 36.5762C122.897 37.1388 122.357 37.7285 121.835 38.3452C119.359 41.2793 117.486 44.6723 116.321 48.3306C115.157 51.9888 114.724 55.8406 115.048 59.666C115.372 63.4914 116.446 67.2155 118.21 70.6257C119.973 74.0359 122.391 77.0654 125.325 79.5412C128.259 82.017 131.652 83.8906 135.31 85.0551C138.969 86.2197 142.82 86.6522 146.646 86.3282C150.471 86.0041 154.195 84.9297 157.606 83.1664C161.016 81.4031 164.045 78.9853 166.521 76.0512C167.042 75.4338 167.532 74.8005 167.992 74.1512C162.816 79.353 155.873 82.418 148.541 82.7376C141.21 83.0571 134.026 80.6079 128.417 75.8762Z" fill="black"/>
</svg>
