<svg xmlns="http://www.w3.org/2000/svg" width="231" height="221" viewBox="0 0 231 221"><path d="M362.255,383.071c-1.036-.008-2.085-.015-3.114-.047l.032-1.038c1.019.031,2.061.046,3.082.047s2.072-.017,3.109-.05l.033,1.038C364.349,383.053,363.292,383.071,362.255,383.071Zm-9.357-.439c-2.068-.2-4.156-.461-6.206-.788l.164-1.025c2.029.324,4.094.586,6.14.78Zm18.743-.011-.1-1.034c2.045-.2,4.111-.461,6.139-.788l.165,1.025c-2.05.33-4.138.6-6.205.8Zm-31.093-1.962c-2.024-.459-4.062-.99-6.054-1.579l.294-1c1.971.583,3.986,1.108,5.989,1.562Zm43.44-.026-.231-1.012c2.007-.458,4.022-.986,5.988-1.57l.3,1c-1.986.59-4.023,1.123-6.053,1.586Zm-55.434-3.519c-1.954-.718-3.908-1.508-5.809-2.349l.42-.949c1.881.832,3.814,1.614,5.747,2.324Zm67.424-.041-.359-.975c1.921-.708,3.848-1.489,5.727-2.323l.422.949c-1.9.843-3.848,1.633-5.789,2.348ZM317.1,372.046c-1.838-.96-3.674-1.994-5.456-3.074l.538-.889c1.763,1.07,3.579,2.092,5.4,3.042Zm90.3-.038-.481-.92c1.815-.949,3.627-1.972,5.385-3.04l.54.888c-1.778,1.08-3.609,2.114-5.444,3.073Zm-101-6.453c-1.7-1.188-3.39-2.448-5.016-3.745l.648-.812c1.609,1.283,3.278,2.53,4.963,3.705Zm111.679-.037-.6-.851c1.684-1.177,3.352-2.424,4.956-3.705l.648.811c-1.622,1.3-3.307,2.555-5.009,3.744Zm-121.461-7.766c-1.539-1.4-3.053-2.861-4.5-4.351l.746-.723c1.429,1.474,2.927,2.922,4.45,4.305Zm131.232-.036-.7-.769c1.519-1.38,3.016-2.829,4.447-4.307l.746.722c-1.446,1.494-2.959,2.958-4.494,4.354Zm-139.939-8.942c-1.348-1.58-2.662-3.224-3.906-4.885l.831-.623c1.231,1.644,2.531,3.271,3.865,4.834Zm148.643-.043-.79-.674c1.333-1.565,2.633-3.193,3.864-4.839l.832.622c-1.245,1.664-2.558,3.31-3.907,4.891Zm-156.134-9.966c-1.136-1.74-2.23-3.537-3.25-5.341l.9-.511c1.009,1.785,2.091,3.563,3.216,5.284Zm163.628-.056-.87-.567c1.125-1.725,2.207-3.506,3.216-5.295l.9.51c-1.021,1.808-2.115,3.609-3.251,5.351ZM274.266,327.887c-.9-1.869-1.758-3.79-2.537-5.71l.962-.391c.772,1.9,1.617,3.8,2.511,5.649Zm175.93-.081-.935-.452c.894-1.852,1.738-3.758,2.511-5.666l.963.389c-.781,1.929-1.635,3.856-2.539,5.728Zm-180.635-11.5c-.657-1.973-1.257-3.991-1.784-6l1-.264c.521,1.985,1.115,3.982,1.765,5.933ZM454.9,316.2l-.986-.327c.646-1.949,1.238-3.946,1.758-5.936l1.005.263c-.526,2.011-1.124,4.03-1.778,6ZM266.383,304.211c-.4-2.038-.733-4.116-1-6.176l1.03-.133c.263,2.039.595,4.094.987,6.11Zm191.679-.114-1.019-.2c.39-2.015.72-4.072.98-6.112l1.031.132c-.263,2.062-.6,4.14-.992,6.177ZM264.784,291.808c-.133-2.07-.2-4.174-.2-6.254h1.039c0,2.058.07,4.14.2,6.188Zm194.862-.116-1.037-.066c.129-2.046.195-4.128.195-6.187v-.228h1.039v.224c0,2.084-.066,4.188-.2,6.256ZM265.807,279.366l-1.036-.064c.129-2.074.326-4.17.586-6.229l1.03.13C266.129,275.24,265.934,277.314,265.807,279.366Zm192.789-.341c-.135-2.053-.337-4.126-.6-6.16l1.029-.134c.267,2.057.472,4.151.609,6.226ZM267.359,267.091l-1.02-.2c.392-2.038.856-4.092,1.379-6.1l1.005.261C268.205,263.043,267.747,265.074,267.359,267.091ZM457,266.756c-.4-2.018-.862-4.048-1.386-6.033l1-.265c.53,2.007,1,4.058,1.4,6.1Zm-186.524-11.64-.986-.326c.652-1.974,1.378-3.953,2.157-5.884l.963.389C271.837,251.205,271.119,253.164,270.474,255.116Zm183.368-.324c-.652-1.949-1.376-3.9-2.151-5.8l.961-.392c.784,1.923,1.516,3.9,2.175,5.867ZM275.113,243.625l-.936-.45c.9-1.873,1.875-3.742,2.9-5.554l.905.51C276.968,239.924,276,241.772,275.113,243.625Zm174.06-.283c-.895-1.844-1.862-3.686-2.876-5.475l.9-.512c1.025,1.807,2,3.669,2.906,5.534ZM281.188,232.831l-.871-.566c1.133-1.741,2.337-3.469,3.58-5.136l.833.621C283.5,229.4,282.308,231.109,281.188,232.831Zm161.887-.244c-1.124-1.716-2.319-3.421-3.554-5.065l.831-.623c1.247,1.662,2.456,3.385,3.592,5.12Zm-154.486-9.68-.791-.672c1.345-1.583,2.759-3.143,4.2-4.636l.747.722C291.32,219.8,289.921,221.341,288.589,222.907Zm147.063-.214c-1.335-1.561-2.739-3.1-4.171-4.574l.744-.724c1.448,1.489,2.866,3.045,4.216,4.623ZM297.19,214.007l-.7-.768c1.537-1.4,3.137-2.767,4.757-4.063l.649.811c-1.6,1.282-3.186,2.634-4.707,4.019Zm129.835-.188c-1.523-1.379-3.111-2.727-4.721-4.008l.647-.813c1.626,1.294,3.232,2.657,4.77,4.051Zm-120.176-7.543-.6-.85c1.7-1.191,3.46-2.342,5.233-3.423l.54.887C310.273,203.959,308.53,205.1,306.849,206.276Zm110.489-.165c-1.691-1.177-3.438-2.312-5.195-3.375l.538-.888c1.775,1.074,3.542,2.222,5.25,3.411Zm-99.929-6.268-.482-.92c1.836-.963,3.729-1.879,5.625-2.724l.422.949C321.1,197.983,319.225,198.89,317.408,199.843Zm89.333-.143c-1.824-.949-3.7-1.852-5.587-2.683l.419-.95c1.9.84,3.8,1.752,5.647,2.711ZM328.7,194.818l-.361-.974c1.948-.72,3.944-1.387,5.935-1.98l.3,1c-1.97.587-3.945,1.247-5.871,1.959Zm66.707-.118c-1.93-.706-3.908-1.358-5.879-1.938l.293-1c1.992.586,3.991,1.245,5.942,1.959Zm-54.85-3.417-.232-1.012c2.021-.463,4.087-.866,6.14-1.2l.166,1.025C344.6,190.427,342.554,190.825,340.555,191.283Zm42.98-.076c-2-.451-4.048-.843-6.079-1.165l.163-1.026c2.053.326,4.12.722,6.144,1.178ZM352.768,189.3l-.1-1.034c2.062-.2,4.162-.337,6.242-.406l.034,1.038c-2.058.069-4.136.2-6.176.4Zm18.546-.032c-2.043-.191-4.122-.319-6.178-.38l.031-1.038c2.078.062,4.178.191,6.244.384Z" transform="translate(-246.404 -165.996)" fill="#f9ca76"/><circle cx="24" cy="24" r="24" transform="translate(88)" fill="#f87f6a"/><ellipse cx="24.5" cy="23.5" rx="24.5" ry="23.5" transform="translate(182 67)" fill="#5688b7"/><ellipse cx="24.5" cy="24" rx="24.5" ry="24" transform="translate(152 168)" fill="#3b4a84"/><ellipse cx="25" cy="24.5" rx="25" ry="24.5" transform="translate(34 172)" fill="#8198fb"/><ellipse cx="24" cy="23.5" rx="24" ry="23.5" transform="translate(0 67)" fill="#43e7c6"/><path d="M446.133,178.213h-8.514a2.919,2.919,0,0,1-2.919-2.919V166.78a.243.243,0,0,0-.243-.243h-5.595a3.892,3.892,0,0,0-3.892,3.892v19.46a3.892,3.892,0,0,0,3.892,3.892h13.622a3.892,3.892,0,0,0,3.892-3.892V178.456A.243.243,0,0,0,446.133,178.213Zm-5.595,9.73h-9.73a.973.973,0,0,1,0-1.946h9.73a.973.973,0,0,1,0,1.946Zm0-4.865h-9.73a.973.973,0,0,1,0-1.946h9.73a.973.973,0,0,1,0,1.946Z" transform="translate(-323.501 -155.751)" fill="#fff"/><path d="M456.406,176.747,447.661,168a.122.122,0,0,0-.207.086v7.894a.973.973,0,0,0,.973.973h7.894a.122.122,0,0,0,.086-.207Z" transform="translate(-334.308 -156.438)" fill="#fff"/><path d="M576.181,507.508a1.293,1.293,0,1,0,.915.378A1.293,1.293,0,0,0,576.181,507.508Z" transform="translate(-395.564 -319.65)" fill="#fff"/><path d="M571.264,496.738v0a.989.989,0,0,0-.733-.741c-1.444-.352-3.716.023-6.234,1.031a20.051,20.051,0,0,0-6.522,4.13,15.532,15.532,0,0,0-1.432,1.64,6.35,6.35,0,0,0-2.838.456c-2.8,1.231-3.6,4.383-3.81,5.677a1.212,1.212,0,0,0,1.318,1.405h.006l3.117-.34c0,.04.008.076.012.109a1.665,1.665,0,0,0,.48,1l1.521,1.522a1.661,1.661,0,0,0,1,.48l.1.011-.339,3.113v.006a1.212,1.212,0,0,0,1.081,1.33c.037,0,.075.006.112.006a1.206,1.206,0,0,0,.2-.017c1.3-.209,4.452-1,5.68-3.812a6.409,6.409,0,0,0,.458-2.827,15.239,15.239,0,0,0,1.645-1.432,19.9,19.9,0,0,0,4.134-6.471A11.567,11.567,0,0,0,571.264,496.738Zm-5.189,8.475a2.848,2.848,0,1,1,0-4.028l0,0a2.825,2.825,0,0,1,.03,4Z" transform="translate(-383.445 -314.053)" fill="#fff"/><path d="M556.689,526.676a.776.776,0,0,0-.533.13q-.464.318-.935.625a.723.723,0,0,1-1.018-.969l.589-1.018a.775.775,0,0,0-.735-1.207,2.97,2.97,0,0,0-1.727.846c-.177.178-.717.718-1.007,2.775a17.324,17.324,0,0,0-.156,1.782.775.775,0,0,0,.755.795h.039a17.432,17.432,0,0,0,1.784-.155c2.058-.291,2.6-.831,2.776-1.008a2.93,2.93,0,0,0,.843-1.732A.776.776,0,0,0,556.689,526.676Z" transform="translate(-384.162 -327.689)" fill="#fff"/><path d="M325.54,540.486h-1.768a1.326,1.326,0,0,1-1.326-1.326V531.2a1.326,1.326,0,0,1,1.326-1.326h1.768a1.326,1.326,0,0,1,1.326,1.326v7.958A1.326,1.326,0,0,1,325.54,540.486Z" transform="translate(-274.219 -330.402)" fill="#fff"/><path d="M349.378,535.575h-1.768a1.326,1.326,0,0,1-1.326-1.326V520.985a1.326,1.326,0,0,1,1.326-1.326h1.768a1.326,1.326,0,0,1,1.326,1.326v13.263A1.326,1.326,0,0,1,349.378,535.575Z" transform="translate(-285.677 -325.491)" fill="#fff"/><path d="M361.3,529.846h-1.768a1.326,1.326,0,0,1-1.326-1.326V509.067a1.326,1.326,0,0,1,1.326-1.326H361.3a1.326,1.326,0,0,1,1.326,1.326V528.52a1.326,1.326,0,0,1-1.326,1.326Z" transform="translate(-291.406 -319.762)" fill="#fff"/><path d="M337.459,525.754H335.69a1.326,1.326,0,0,1-1.326-1.326V500.553a1.326,1.326,0,0,1,1.326-1.326h1.768a1.326,1.326,0,0,1,1.326,1.326v23.874A1.326,1.326,0,0,1,337.459,525.754Z" transform="translate(-279.948 -315.67)" fill="#fff"/><path d="M618,317.946l-1.264-1.264a1.549,1.549,0,0,0-2.184-.006l-8.784,8.107a1.641,1.641,0,0,0-.549,1.116,1.555,1.555,0,0,0,.446,1.159l1.887,1.908,0,0a1.562,1.562,0,0,0,1.1.456h.057a1.625,1.625,0,0,0,1.121-.541l8.163-8.744a1.549,1.549,0,0,0,.009-2.19Z" transform="translate(-410.142 -227.705)" fill="#fff"/><path d="M635.3,307.54l-.015-.015-1.658-1.641a1.039,1.039,0,0,0-.739-.3,1.06,1.06,0,0,0-.619.2c0-.021,0-.041,0-.059a1.771,1.771,0,0,0-.252-1.22,12.5,12.5,0,0,0-1.2-1.391l0,0a13.1,13.1,0,0,0-4.2-2.707,6.751,6.751,0,0,0-2.568-.506,4.9,4.9,0,0,0-3.133,1.1,5.818,5.818,0,0,0-.686.785.774.774,0,0,0,.9,1.178,3.606,3.606,0,0,1,.415-.127,3.069,3.069,0,0,1,.893-.056,3.755,3.755,0,0,1,1.727.633,2.486,2.486,0,0,1,.883,1.988,5.157,5.157,0,0,1-.968,1.668.775.775,0,0,0,.07,1.016l1.665,1.665a.774.774,0,0,0,1.064.03c.471-.421,1.188-1.054,1.439-1.21a1.8,1.8,0,0,1,.711-.281.929.929,0,0,1,.546.115.06.06,0,0,1-.015.046l-.088.084-.015.014a1.042,1.042,0,0,0,0,1.473l.005.005,1.658,1.641a1.037,1.037,0,0,0,.739.3,1.05,1.05,0,0,0,.736-.3l2.686-2.653.027-.029A1.058,1.058,0,0,0,635.3,307.54Z" transform="translate(-417.29 -219.854)" fill="#fff"/><path d="M283.145,310.795a.969.969,0,0,1-.685-1.654l2.221-2.221L282.46,304.7a.969.969,0,0,1,1.37-1.37l2.906,2.906a.969.969,0,0,1,0,1.37l-2.906,2.906A.966.966,0,0,1,283.145,310.795Z" transform="translate(-254.862 -221.368)" fill="#fff"/><path d="M253.3,316.391a.969.969,0,0,1-.969-.969v-.969a5.842,5.842,0,0,1,5.81-5.813h12.6a.969.969,0,1,1,0,1.938H258.14a3.9,3.9,0,0,0-3.875,3.878v.966a.969.969,0,0,1-.969.969Z" transform="translate(-240.514 -224.058)" fill="#fff"/><path d="M265.531,331.316a.965.965,0,0,1-.685-.284l-2.907-2.907a.969.969,0,0,1,0-1.37l2.906-2.906a.969.969,0,1,1,1.37,1.37l-2.221,2.221,2.221,2.221a.969.969,0,0,1-.685,1.654Z" transform="translate(-244.998 -231.232)" fill="#fff"/><path d="M264.489,325.719a.969.969,0,1,1,0-1.938h12.595a3.9,3.9,0,0,0,3.875-3.878v-.966a.969.969,0,1,1,1.938,0v.969a5.842,5.842,0,0,1-5.81,5.813Z" transform="translate(-245.895 -228.541)" fill="#fff"/></svg>